# xmcd CD database file
#
# Track frame offsets:
#	150
#	15880
#	28062
#	45080
#	55365
#	68035
#	81382
#	96012
#	103505
#	120640
#	130140
#	142117
#	156095
#	170720
#	188667
#	207872
#	221550
#	269612
#	286932
#	299100
#
# Disc length: 4136 seconds
#
# Revision: 2
# Processed by: cddbd v1.5.2PL0 Copyright (c) Steve Scherf et al.
# Submitted via: CDex 1.70beta2
#
DISCID=29102614
DTITLE=Various Artist - Zlato České Country 2
DYEAR=2003
DGENRE=Country
TTITLE0=Blizzard
TTITLE1=Zvedněte kotvy
TTITLE2=Už koníček pádí
TTITLE3=Kočárem mým je vagon uhlí
TTITLE4=Je všechno O.K.
TTITLE5=Pole s bavlnou
TTITLE6=Sbohem, lásko
TTITLE7=Mávej
TTITLE8=Sadie (byla lady)
TTITLE9=Na osadě hráli
TTITLE10=Cizinec
TTITLE11=Náklaďák
TTITLE12=Rezavý šporny
TTITLE13=Špitál u sv. Jakuba
TTITLE14=Bitva o Karlův most
TTITLE15=Srdcem jsi zůstal u koní
TTITLE16=Telegrafní cesta
TTITLE17=Farao
TTITLE18=To tenkrát v čtyřicátom pátom
TTITLE19=Buráky
EXTD=YEAR: 2003
EXTT0=
EXTT1=
EXTT2=
EXTT3=
EXTT4=
EXTT5=
EXTT6=
EXTT7=
EXTT8=
EXTT9=
EXTT10=
EXTT11=
EXTT12=
EXTT13=
EXTT14=
EXTT15=
EXTT16=
EXTT17=
EXTT18=
EXTT19=
PLAYORDER=
